<!DOCTYPE svg PUBLIC "-//W3C//DTD SVG 1.1//EN" "http://www.w3.org/Graphics/SVG/1.1/DTD/svg11.dtd">
<!-- Uploaded to: SVG Repo, www.svgrepo.com, Transformed by: SVG Repo Mixer Tools -->
<svg width="800px" height="800px" viewBox="-2.4 -2.4 28.80 28.80" fill="none" xmlns="http://www.w3.org/2000/svg">
<g id="SVGRepo_bgCarrier" stroke-width="0" transform="translate(0,0), scale(1)">
<path transform="translate(-2.4, -2.4), scale(0.8999999999999999)" d="M16,29.117048379033804C19.256879366833605,28.915174236635345,21.259246685143488,25.864611191570127,23.70911124189299,23.70911124189299C26.453259602075903,21.29468729507328,30.680974772833462,19.648024724463074,30.90837052340309,16C31.13895909403648,12.300754060961975,27.61895261488269,9.592957117609085,24.734080129459706,7.265919870540298C22.216653377521023,5.235276974492232,19.230026502196566,4.141359729908531,16,3.9743962076803054C12.551603242859901,3.796144893574689,9.010041435301572,4.1566153276941575,6.313753498921502,6.313753498921498C3.320263440289674,8.708665252795122,0.7695092776798718,12.171568268544366,0.968746617436409,15.999999999999996C1.1626348424384525,19.72564617586486,4.461158144081691,22.275009928443655,7.272055658795892,24.7279443412041C9.822730000523375,26.953794567267778,12.6211708217447,29.326481448498186,16,29.117048379033804" fill="#7ed0ec" strokewidth="0"/>
</g>
<g id="SVGRepo_tracerCarrier" stroke-linecap="round" stroke-linejoin="round" stroke="#CCCCCC" stroke-width="0.048"/>
<g id="SVGRepo_iconCarrier"> <path d="M20.5 18.5H3L8.5 9.5L12 13.5L15 6L20.5 18.5Z" stroke="#000000" stroke-width="2" stroke-linecap="round" stroke-linejoin="round"/> </g>
</svg>